<?xml version="1.0" standalone="no"?>
<!DOCTYPE svg PUBLIC "-//W3C//DTD SVG 20010904//EN"
 "http://www.w3.org/TR/2001/REC-SVG-20010904/DTD/svg10.dtd">
<svg version="1.0" xmlns="http://www.w3.org/2000/svg"
 width="920.000000pt" height="640.000000pt" viewBox="0 0 920.000000 640.000000"
 preserveAspectRatio="xMidYMid meet">

<g transform="translate(0.000000,640.000000) scale(0.100000,-0.100000)"
fill="#000000" stroke="none">
<path d="M4444 5849 c-316 -16 -640 -97 -952 -237 -188 -85 -400 -216 -572
-356 -98 -79 -300 -281 -377 -376 -319 -396 -519 -869 -578 -1367 -15 -124
-21 -462 -11 -547 48 -364 98 -561 212 -824 95 -218 229 -438 378 -622 79 -98
281 -300 376 -377 439 -353 986 -566 1518 -590 82 -3 142 -2 142 3 0 51 -68
378 -105 507 l-47 164 37 57 c52 81 89 163 115 256 l24 80 37 -114 c24 -73 56
-143 89 -197 l51 -83 -46 -155 c-37 -127 -105 -455 -105 -508 0 -31 315 -4
543 46 1162 256 2020 1268 2075 2446 21 442 -51 832 -226 1233 -82 187 -225
418 -363 589 -81 99 -282 301 -379 379 -105 86 -277 202 -396 268 -328 182
-750 306 -1099 322 -60 2 -130 6 -155 7 -25 2 -109 0 -186 -4z m-894 -584 c18
-20 18 -22 -17 -113 -20 -51 -37 -91 -39 -90 -1 2 -10 37 -18 78 -16 77 -21
186 -9 228 5 21 9 18 35 -29 16 -30 37 -63 48 -74z m2199 17 c1 -62 -29 -226
-39 -215 -4 4 -22 45 -39 91 l-32 83 30 37 c16 21 38 55 48 76 l18 39 6 -29
c4 -16 7 -53 8 -82z m-1118 18 c17 0 4 -366 -17 -464 -16 -75 -35 58 -49 341
-5 111 -4 122 12 126 10 3 24 3 31 1 8 -2 18 -4 23 -4z m-506 -147 c-25 -114
-31 -348 -11 -443 39 -186 164 -351 325 -427 l80 -38 1 -227 c0 -208 5 -251
25 -218 3 5 18 18 34 29 l28 20 42 -30 41 -31 0 229 1 228 87 42 c154 73 269
215 318 393 33 120 22 392 -22 542 -4 15 0 15 53 1 56 -14 98 -32 78 -33 -6 0
-9 -52 -7 -142 4 -166 -9 -268 -49 -393 -64 -200 -186 -348 -360 -436 l-56
-28 -8 -216 -7 -217 28 -29 c34 -36 63 -37 95 -3 37 40 99 87 106 81 6 -7 -86
-120 -121 -149 -33 -28 -54 -21 -114 36 -99 93 -108 93 -210 2 -34 -31 -70
-56 -80 -56 -16 0 -110 92 -140 137 -30 47 0 36 56 -20 32 -32 67 -57 78 -57
11 0 34 15 51 33 l30 32 -8 175 c-4 96 -8 193 -9 215 -1 39 -2 41 -73 75 -111
54 -229 176 -291 300 -25 52 -58 140 -73 195 -24 90 -26 118 -27 290 l-1 190
60 16 c33 9 62 15 63 13 2 -1 -4 -38 -13 -81z m-370 -403 c17 -116 46 -220 74
-266 10 -17 48 -48 83 -69 75 -45 321 -212 396 -268 l52 -39 0 -107 0 -107
-40 -39 -40 -39 -33 32 c-27 28 -30 34 -16 42 51 29 58 43 64 131 l7 86 -175
114 c-97 63 -202 130 -235 150 -87 53 -106 85 -136 219 -14 63 -26 126 -27
140 -4 46 1 133 7 128 3 -3 12 -52 19 -108z m1722 3 c-6 -108 -41 -261 -70
-305 -12 -18 -51 -51 -85 -73 -35 -22 -142 -91 -239 -154 l-175 -115 6 -85 c7
-88 13 -100 65 -131 14 -9 11 -14 -18 -41 l-33 -31 -39 38 -39 38 0 108 0 108
62 46 c89 65 377 258 415 278 18 9 43 35 57 59 31 53 65 189 73 290 9 110 27
84 20 -30z m229 -123 c22 -100 22 -285 0 -373 -9 -37 -34 -103 -55 -145 -22
-42 -49 -113 -61 -157 -29 -105 -60 -169 -115 -232 l-45 -51 -78 -6 c-117 -10
-180 -23 -212 -46 -28 -20 -31 -20 -55 -4 -25 16 -25 17 -8 37 28 30 59 39
170 46 136 10 159 25 247 173 36 60 66 113 66 118 0 5 -17 23 -37 40 l-38 32
42 43 c54 57 119 190 139 285 12 56 15 108 10 210 -3 74 -7 149 -10 165 -10
54 24 -58 40 -135z m-2166 90 c-15 -81 -12 -261 6 -343 22 -99 74 -205 133
-269 l49 -54 -30 -19 c-51 -34 -50 -42 13 -149 98 -166 114 -177 260 -187 148
-10 208 -45 152 -89 -26 -20 -27 -20 -47 -2 -33 30 -83 43 -186 49 -95 5 -95
5 -138 47 -64 61 -98 121 -122 216 -12 47 -42 126 -66 175 -61 125 -77 196
-77 335 0 113 9 176 40 293 19 71 27 69 13 -3z m250 -553 c70 -8 140 -42 240
-117 47 -34 87 -64 90 -67 11 -12 -104 50 -156 83 -69 44 -124 64 -180 64 -41
0 -45 2 -87 63 -64 90 -66 99 -8 36 45 -51 55 -57 101 -62z m1794 101 c-4 -7
-27 -41 -51 -75 -42 -61 -46 -63 -87 -63 -56 0 -111 -20 -180 -64 -58 -37
-168 -95 -151 -79 6 5 51 39 100 75 91 67 184 108 244 108 24 0 40 11 77 55
47 54 62 68 48 43z m-1960 -523 c61 -145 143 -275 203 -321 31 -23 38 -25 74
-16 50 13 59 5 95 -90 82 -217 129 -314 176 -365 l20 -22 -60 -148 c-33 -81
-68 -174 -77 -206 -17 -58 -17 -58 -37 -40 -35 31 -108 134 -108 151 0 10 27
62 60 116 33 55 60 107 60 115 0 9 -26 57 -58 106 -32 50 -108 174 -170 276
-118 196 -163 299 -236 549 -46 155 -54 209 -13 85 19 -55 51 -140 71 -190z
m2050 215 c-8 -36 -44 -153 -80 -260 -62 -185 -71 -204 -177 -380 -61 -102
-139 -230 -174 -284 -35 -55 -63 -108 -63 -119 0 -10 8 -31 19 -45 30 -43 101
-178 101 -191 0 -14 -46 -77 -94 -129 l-30 -32 -12 48 c-7 27 -43 119 -79 204
l-67 156 35 48 c48 68 81 137 138 288 27 71 54 135 59 142 8 8 23 9 57 1 l47
-10 62 65 c76 81 162 248 224 436 24 73 45 130 46 129 2 -2 -4 -32 -12 -67z
m-1954 -27 c83 -139 171 -191 345 -201 124 -7 120 -3 239 -209 83 -144 89
-153 124 -160 60 -13 354 -9 378 5 12 6 61 80 110 164 114 197 114 198 203
198 126 0 233 35 295 96 16 16 49 60 73 97 25 38 47 66 50 63 7 -7 -93 -174
-126 -209 -44 -48 -78 -60 -188 -67 -81 -5 -108 -10 -130 -26 -15 -11 -71 -94
-125 -184 -54 -90 -104 -170 -111 -177 -46 -46 -447 -43 -499 4 -18 16 -155
238 -192 311 -25 49 -82 71 -181 72 -88 0 -144 19 -181 61 -22 24 -88 129
-118 187 -28 55 -2 35 34 -25z m218 27 c117 -11 163 -28 241 -91 52 -42 53
-44 30 -50 -37 -11 -230 -10 -269 1 -45 12 -96 55 -139 115 l-35 48 35 -7 c19
-4 80 -11 137 -16z m1470 -26 c-42 -59 -94 -102 -138 -114 -39 -11 -232 -12
-269 -1 -23 6 -22 8 30 50 80 65 123 80 251 92 61 5 114 12 117 14 2 3 13 5
23 5 17 0 15 -6 -14 -46z m-1904 -1736 c-23 -24 -51 -57 -62 -75 -18 -26 -31
-32 -75 -38 -28 -4 -103 -22 -164 -41 -62 -19 -116 -34 -119 -34 -4 0 29 25
72 57 43 31 105 80 138 109 l59 53 76 4 c42 1 85 4 96 5 15 2 11 -7 -21 -40z
m2436 -28 c36 -31 95 -78 132 -105 37 -27 66 -50 65 -51 -2 -2 -45 10 -96 26
-51 15 -124 34 -163 41 -62 11 -72 16 -96 48 -14 20 -41 52 -60 72 l-34 37 94
-6 93 -5 65 -57z m-2174 -224 c-18 -36 -39 -87 -46 -115 l-12 -50 -106 -57
c-59 -32 -153 -88 -209 -126 -56 -37 -105 -68 -108 -68 -3 0 37 56 89 125 53
68 115 158 138 199 l43 75 70 16 c39 9 90 27 115 40 25 13 49 24 53 25 4 0 -8
-29 -27 -64z m1725 35 c35 -15 82 -31 104 -35 22 -4 48 -9 57 -12 9 -3 44 -49
77 -102 33 -53 96 -143 140 -199 44 -57 78 -103 76 -103 -3 0 -58 34 -122 76
-65 42 -159 97 -210 122 -51 26 -93 50 -93 55 0 29 -35 122 -65 171 -18 31
-32 56 -31 56 2 0 32 -13 67 -29z m-1325 -330 c-9 -38 -16 -107 -16 -152 l0
-82 -85 -79 c-46 -43 -137 -142 -200 -219 -64 -76 -118 -139 -120 -139 -2 0
24 71 57 158 33 86 75 215 93 285 l32 129 69 38 c38 21 94 61 124 88 30 27 57
48 58 47 2 -2 -3 -35 -12 -74z m947 23 c33 -30 88 -70 123 -87 l63 -31 26
-110 c15 -61 56 -188 91 -282 35 -94 64 -174 64 -178 0 -4 -56 60 -124 141
-69 81 -159 179 -200 216 l-76 68 0 82 c0 45 -9 117 -19 160 -10 42 -16 77
-13 77 2 0 31 -25 65 -56z"/>
<path d="M3390 2170 c-19 -11 -30 -19 -25 -19 6 0 26 8 45 19 19 11 31 19 25
19 -5 0 -26 -8 -45 -19z"/>
<path d="M5783 2184 c9 -9 107 -54 107 -49 0 3 -22 16 -50 30 -48 24 -70 32
-57 19z"/>
<path d="M3595 1822 c-93 -89 -69 -71 42 31 34 31 58 57 55 57 -4 -1 -48 -40
-97 -88z"/>
<path d="M5533 1904 c4 -6 48 -49 99 -95 51 -46 84 -73 73 -60 -25 30 -181
170 -172 155z"/>
<path d="M4065 1548 c-15 -29 -39 -72 -52 -95 -14 -24 -23 -43 -20 -43 8 0
110 181 105 186 -3 2 -17 -20 -33 -48z"/>
<path d="M5131 1585 c9 -23 91 -165 96 -165 6 0 -76 151 -89 165 -7 7 -9 7 -7
0z"/>
<path d="M5240 1390 c6 -11 13 -20 16 -20 2 0 0 9 -6 20 -6 11 -13 20 -16 20
-2 0 0 -9 6 -20z"/>
<path d="M4590 1263 c0 -123 15 -133 18 -12 2 64 -1 99 -8 99 -6 0 -10 -33
-10 -87z"/>
</g>
</svg>
